<svg width="125" height="42" viewBox="0 0 125 42" fill="none" xmlns="http://www.w3.org/2000/svg">
<g id="Image 197" clip-path="url(#clip0_327_422)">
<g id="Group">
<g id="Group_2">
<g id="Group_3">
<g id="Group_4">
<g id="Group_5">
<g id="Group_6">
<g id="Group_7">
<path id="Vector" d="M53.683 26.3613H60.7494C60.7494 28.6529 58.885 30.5106 56.5853 30.5106H48.2886V13.8191C48.2886 10.8504 50.7037 8.44385 53.683 8.44385V26.3613Z" fill="#323842"/>
</g>
<g id="Group_8">
<path id="Vector_2" d="M70.4989 30.7617C68.7744 30.7617 67.218 30.3951 65.83 29.6615C64.4631 28.9281 63.38 27.8803 62.5807 26.5182C61.8026 25.156 61.4136 23.5633 61.4136 21.7402C61.4136 19.938 61.8132 18.3558 62.6123 16.9936C63.4115 15.6105 64.505 14.5522 65.8931 13.8188C67.2811 13.0852 68.8375 12.7186 70.562 12.7186C72.2865 12.7186 73.8428 13.0852 75.2308 13.8188C76.6189 14.5522 77.7125 15.6105 78.5116 16.9936C79.3109 18.3558 79.7104 19.938 79.7104 21.7402C79.7104 23.5424 79.3003 25.1351 78.4801 26.5182C77.6809 27.8803 76.5768 28.9281 75.1677 29.6615C73.7797 30.3951 72.2234 30.7617 70.4989 30.7617ZM70.4989 26.1095C71.5294 26.1095 72.4022 25.7323 73.1172 24.9779C73.8533 24.2234 74.2213 23.1442 74.2213 21.7402C74.2213 20.3361 73.8638 19.2569 73.1488 18.5025C72.4547 17.748 71.5925 17.3708 70.562 17.3708C69.5104 17.3708 68.6377 17.748 67.9436 18.5025C67.2496 19.2359 66.9026 20.3152 66.9026 21.7402C66.9026 23.1442 67.2391 24.2234 67.9121 24.9779C68.6061 25.7323 69.4684 26.1095 70.4989 26.1095Z" fill="#323842"/>
</g>
<g id="Group_9">
<path id="Vector_3" d="M89.1198 12.7186C90.3611 12.7186 91.4441 12.97 92.3694 13.473C93.3156 13.9759 94.041 14.636 94.5457 15.4533C94.5457 14.0818 95.6614 12.97 97.0379 12.97H99.9403V30.4789C99.9403 32.0925 99.614 33.5489 98.9622 34.8482C98.3311 36.1684 97.3538 37.2163 96.0285 37.9916C94.7248 38.767 93.0948 39.1547 91.1393 39.1547C88.5312 39.1547 86.4173 38.5365 84.7985 37.3C83.1789 36.0846 82.2536 34.4291 82.0224 32.3335H87.3531C87.5218 33.0041 87.9209 33.528 88.552 33.9052C89.183 34.3033 89.9612 34.5024 90.8866 34.5024C92.0015 34.5024 92.8845 34.1776 93.5363 33.528C94.2098 32.8993 94.5457 31.8829 94.5457 30.4789V27.9956C94.0202 28.8129 93.2948 29.4834 92.3694 30.0073C91.4441 30.5103 90.3611 30.7617 89.1198 30.7617C87.669 30.7617 86.3541 30.3951 85.1768 29.6615C83.9987 28.9071 83.0629 27.8489 82.3687 26.4867C81.6961 25.1036 81.3594 23.5109 81.3594 21.7087C81.3594 19.9065 81.6961 18.3243 82.3687 16.9622C83.0629 15.6 83.9987 14.5522 85.1768 13.8188C86.3541 13.0852 87.669 12.7186 89.1198 12.7186ZM94.5457 21.7402C94.5457 20.399 94.1674 19.3407 93.41 18.5653C92.6741 17.7899 91.7696 17.4023 90.697 17.4023C89.6245 17.4023 88.7095 17.7899 87.9529 18.5653C87.2163 19.3198 86.8484 20.3675 86.8484 21.7087C86.8484 23.0499 87.2163 24.1187 87.9529 24.915C88.7095 25.6904 89.6245 26.0781 90.697 26.0781C91.7696 26.0781 92.6741 25.6904 93.41 24.915C94.1674 24.1397 94.5457 23.0814 94.5457 21.7402Z" fill="#323842"/>
</g>
<g id="Group_10">
<path id="Vector_4" d="M110.755 30.7618C109.03 30.7618 107.474 30.3951 106.085 29.6616C104.719 28.9282 103.636 27.8804 102.837 26.5182C102.058 25.1561 101.669 23.5634 101.669 21.7403C101.669 19.938 102.069 18.3558 102.868 16.9937C103.667 15.6105 104.761 14.5523 106.149 13.8188C107.537 13.0853 109.093 12.7186 110.818 12.7186C112.542 12.7186 114.099 13.0853 115.486 13.8188C116.875 14.5523 117.968 15.6105 118.767 16.9937C119.567 18.3558 119.966 19.938 119.966 21.7403C119.966 23.5424 119.556 25.1351 118.736 26.5182C117.937 27.8804 116.832 28.9282 115.423 29.6616C114.035 30.3951 112.479 30.7618 110.755 30.7618ZM110.755 26.1096C111.785 26.1096 112.658 25.7324 113.373 24.978C114.109 24.2235 114.477 23.1443 114.477 21.7403C114.477 20.3362 114.119 19.2569 113.404 18.5025C112.71 17.7481 111.848 17.3709 110.818 17.3709C109.766 17.3709 108.894 17.7481 108.199 18.5025C107.505 19.236 107.158 20.3152 107.158 21.7403C107.158 23.1443 107.495 24.2235 108.168 24.978C108.862 25.7324 109.724 26.1096 110.755 26.1096Z" fill="#323842"/>
</g>
<g id="Group_11">
<path id="Vector_5" d="M30.7793 19.3531C35.1964 19.3531 38.7773 15.785 38.7773 11.3835C38.7773 6.98204 35.1964 3.41394 30.7793 3.41394C26.3621 3.41394 22.7812 6.98204 22.7812 11.3835C22.7812 15.785 26.3621 19.3531 30.7793 19.3531Z" fill="#9341FF"/>
</g>
<g id="Group_12">
<path id="Vector_6" d="M30.7793 38.4801C35.1964 38.4801 38.7773 34.912 38.7773 30.5105C38.7773 26.1091 35.1964 22.541 30.7793 22.541C26.3621 22.541 22.7812 26.1091 22.7812 30.5105C22.7812 34.912 26.3621 38.4801 30.7793 38.4801Z" fill="#FFD042"/>
</g>
<g id="Group_13">
<path id="Vector_7" d="M4.46094 16.9621C4.46094 9.47967 10.5484 3.41388 18.0575 3.41388V24.9317C18.0575 32.4142 11.9701 38.48 4.46094 38.48V16.9621Z" fill="#417DFF"/>
</g>
</g>
</g>
</g>
</g>
</g>
</g>
</g>
<defs>
<clipPath id="clip0_327_422">
<rect width="124.325" height="41.4417" fill="white" transform="translate(0.5 0.226318)"/>
</clipPath>
</defs>
</svg>
