<svg width="18" height="18" viewBox="0 0 18 18" fill="none" xmlns="http://www.w3.org/2000/svg">
<path d="M13.7046 8.5006V6.66997C13.7046 5.5371 13.2546 4.45064 12.4535 3.64958C11.6525 2.84853 10.566 2.3985 9.43315 2.3985C8.30029 2.3985 7.21382 2.84853 6.41277 3.64958C5.61171 4.45064 5.16168 5.5371 5.16168 6.66997L5.16168 8.5006C5.16168 10.5143 3.33105 11.0025 3.33105 12.1619C3.33105 13.1992 5.71087 13.9925 9.43315 13.9925C13.1554 13.9925 15.5352 13.1992 15.5352 12.1619C15.5352 11.0025 13.7046 10.5143 13.7046 8.5006Z" stroke="#00A789" stroke-width="1.4645" stroke-miterlimit="10" stroke-linecap="square"/>
<path d="M9.43307 15.2129C8.81614 15.2129 8.23645 15.1922 7.69092 15.1519C7.80722 15.5229 8.03892 15.8471 8.35227 16.0772C8.66563 16.3074 9.04427 16.4315 9.43307 16.4315C9.82186 16.4315 10.2005 16.3074 10.5139 16.0772C10.8272 15.8471 11.0589 15.5229 11.1752 15.1519C10.6297 15.1922 10.05 15.2129 9.43307 15.2129Z" fill="#00A789"/>
</svg>
