<svg width="18" height="18" viewBox="0 0 18 18" fill="none" xmlns="http://www.w3.org/2000/svg">
<path d="M15.7026 14.7761L11.8085 10.882C12.7442 9.75866 13.2108 8.3178 13.1113 6.85918C13.0117 5.40055 12.3536 4.03647 11.2739 3.05069C10.1942 2.06492 8.77603 1.53335 7.31439 1.56656C5.85275 1.59978 4.46018 2.19522 3.42638 3.22902C2.39258 4.26283 1.79713 5.65539 1.76392 7.11703C1.7307 8.57868 2.26228 9.99685 3.24805 11.0765C4.23383 12.1562 5.59791 12.8143 7.05653 12.9139C8.51516 13.0135 9.95602 12.5469 11.0794 11.6112L14.9734 15.5052L15.7026 14.7761ZM2.81195 7.25522C2.81195 6.33739 3.08412 5.44017 3.59404 4.67702C4.10396 3.91388 4.82872 3.31908 5.67668 2.96784C6.52465 2.6166 7.45772 2.5247 8.35792 2.70376C9.25811 2.88282 10.085 3.3248 10.734 3.9738C11.383 4.6228 11.825 5.44968 12.004 6.34988C12.1831 7.25007 12.0912 8.18314 11.74 9.03111C11.3887 9.87907 10.7939 10.6038 10.0308 11.1138C9.26762 11.6237 8.3704 11.8958 7.45257 11.8958C6.22222 11.8945 5.04266 11.4051 4.17267 10.5351C3.30267 9.66514 2.81332 8.48557 2.81195 7.25522Z" fill="#565E6C"/>
</svg>
