<svg width="15" height="15" viewBox="0 0 15 15" fill="none" xmlns="http://www.w3.org/2000/svg">
<path d="M14.7026 13.7761L10.8085 9.88202C11.7442 8.75866 12.2108 7.3178 12.1113 5.85918C12.0117 4.40055 11.3536 3.03647 10.2739 2.05069C9.19421 1.06492 7.77603 0.533347 6.31439 0.566562C4.85275 0.599776 3.46018 1.19522 2.42638 2.22902C1.39258 3.26283 0.797133 4.65539 0.763919 6.11703C0.730704 7.57868 1.26228 8.99685 2.24805 10.0765C3.23383 11.1562 4.59791 11.8143 6.05653 11.9139C7.51516 12.0135 8.95602 11.5469 10.0794 10.6112L13.9734 14.5052L14.7026 13.7761ZM1.81195 6.25522C1.81195 5.33739 2.08412 4.44017 2.59404 3.67702C3.10396 2.91388 3.82872 2.31908 4.67668 1.96784C5.52465 1.6166 6.45772 1.5247 7.35792 1.70376C8.25811 1.88282 9.08499 2.3248 9.73399 2.9738C10.383 3.6228 10.825 4.44968 11.004 5.34988C11.1831 6.25007 11.0912 7.18314 10.74 8.03111C10.3887 8.87907 9.79391 9.60384 9.03077 10.1138C8.26762 10.6237 7.3704 10.8958 6.45257 10.8958C5.22222 10.8945 4.04266 10.4051 3.17267 9.53513C2.30268 8.66514 1.81332 7.48557 1.81195 6.25522Z" fill="#00A789"/>
</svg>
