<svg width="18" height="18" viewBox="0 0 18 18" fill="none" xmlns="http://www.w3.org/2000/svg">
<path d="M9.43317 11.2323C10.4442 11.2323 11.2638 10.4127 11.2638 9.40169C11.2638 8.39066 10.4442 7.57106 9.43317 7.57106C8.42214 7.57106 7.60254 8.39066 7.60254 9.40169C7.60254 10.4127 8.42214 11.2323 9.43317 11.2323Z" stroke="#00A789" stroke-width="1.4645" stroke-miterlimit="10" stroke-linecap="square"/>
<path d="M14.3148 9.40165C14.314 9.05012 14.2756 8.69968 14.2 8.35636L15.8561 7.10238L14.6357 4.98862L12.7178 5.79775C12.1985 5.32161 11.582 4.96374 10.911 4.7488L10.6535 2.68935L8.21266 2.68935L7.95515 4.7488C7.28413 4.96374 6.66769 5.32161 6.14832 5.79775L4.23043 4.98862L3.01001 7.10238L4.66612 8.35636C4.5132 9.04483 4.5132 9.75847 4.66612 10.4469L3.01001 11.7009L4.23043 13.8147L6.14832 13.0056C6.66769 13.4817 7.28413 13.8396 7.95515 14.0545L8.21266 16.114H10.6535L10.911 14.0545C11.582 13.8396 12.1985 13.4817 12.7178 13.0056L14.6357 13.8147L15.8561 11.7009L14.2 10.4469C14.2756 10.1036 14.314 9.75318 14.3148 9.40165Z" stroke="#00A789" stroke-width="1.4645" stroke-miterlimit="10" stroke-linecap="square"/>
</svg>
